<?xml version="1.0" ?><svg id="Layer_1" style="enable-background:new 0 0 512 512;" version="1.1" viewBox="0 0 512 512" xml:space="preserve" xmlns="http://www.w3.org/2000/svg" xmlns:xlink="http://www.w3.org/1999/xlink"><style type="text/css">
	.st0{fill:#E6E6E6;}
	.st1{fill:#69C9C9;}
	.st2{fill:#4D5152;}
</style><path class="st0" d="M363.4,124.5v101.5h-10V286h10v101.5H482V124.5H363.4z M422.7,333.3c-5.5,0-10-4.5-10-10s4.5-10,10-10  s10,4.5,10,10S428.2,333.3,422.7,333.3z"/><polygon class="st1" points="155.6,295.4 175.6,295.4 175.6,285.4 259,285.4 259,166.7 72.2,166.7 72.2,285.4 155.6,285.4 "/><g><path class="st2" d="M10,347.6h145.6v39.9h-26.1v20h72.3v-20h-26.1v-39.9h145.6v-243H10V347.6z M30,124.5h271.2v203H30V124.5z"/><polygon class="st2" points="52.2,305.4 155.6,305.4 155.6,285.4 72.2,285.4 72.2,166.7 259,166.7 259,285.4 175.6,285.4    175.6,305.4 279,305.4 279,146.7 52.2,146.7  "/><rect class="st2" height="20" width="78.6" x="383.4" y="158.7"/><rect class="st2" height="20" width="78.6" x="383.4" y="198.7"/><path class="st2" d="M422.7,293.3c-16.5,0-30,13.5-30,30s13.5,30,30,30s30-13.5,30-30S439.2,293.3,422.7,293.3z M422.7,333.3   c-5.5,0-10-4.5-10-10s4.5-10,10-10s10,4.5,10,10S428.2,333.3,422.7,333.3z"/><rect class="st2" height="20" width="20" x="343.4" y="246"/><polygon class="st2" points="343.4,104.5 343.4,226 363.4,226 363.4,124.5 482,124.5 482,387.5 363.4,387.5 363.4,286 343.4,286    343.4,407.5 502,407.5 502,104.5  "/></g></svg>